<mxfile host="app.diagrams.net" modified="2021-09-13T08:54:02.898Z" agent="5.0 (Windows NT 10.0; Win64; x64) AppleWebKit/537.36 (KHTML, like Gecko) Chrome/93.0.4577.63 Safari/537.36 Edg/93.0.961.44" etag="UYZcbCzjCLzGPY6IVkZI" version="15.2.1" type="github">
  <diagram id="20JnTy4NAefpU1GbuEyr" name="第 1 页">
    <mxGraphModel dx="1209" dy="674" grid="1" gridSize="10" guides="1" tooltips="1" connect="1" arrows="1" fold="1" page="1" pageScale="1" pageWidth="10000" pageHeight="1169" math="0" shadow="0">
      <root>
        <mxCell id="0" />
        <mxCell id="1" parent="0" />
        <mxCell id="GbO0zibeAMqenVSyb-cL-11" style="edgeStyle=orthogonalEdgeStyle;rounded=0;orthogonalLoop=1;jettySize=auto;html=1;entryX=0;entryY=0.5;entryDx=0;entryDy=0;" parent="1" source="GbO0zibeAMqenVSyb-cL-1" target="GbO0zibeAMqenVSyb-cL-2" edge="1">
          <mxGeometry relative="1" as="geometry" />
        </mxCell>
        <mxCell id="GbO0zibeAMqenVSyb-cL-1" value="开始" style="rounded=1;whiteSpace=wrap;html=1;" parent="1" vertex="1">
          <mxGeometry x="300" y="480" width="120" height="60" as="geometry" />
        </mxCell>
        <mxCell id="GbO0zibeAMqenVSyb-cL-12" style="edgeStyle=orthogonalEdgeStyle;rounded=0;orthogonalLoop=1;jettySize=auto;html=1;" parent="1" source="GbO0zibeAMqenVSyb-cL-2" target="GbO0zibeAMqenVSyb-cL-3" edge="1">
          <mxGeometry relative="1" as="geometry" />
        </mxCell>
        <mxCell id="GbO0zibeAMqenVSyb-cL-2" value="宣传触达客户" style="rounded=0;whiteSpace=wrap;html=1;" parent="1" vertex="1">
          <mxGeometry x="510" y="480" width="120" height="60" as="geometry" />
        </mxCell>
        <mxCell id="GbO0zibeAMqenVSyb-cL-13" style="edgeStyle=orthogonalEdgeStyle;rounded=0;orthogonalLoop=1;jettySize=auto;html=1;entryX=0;entryY=0.5;entryDx=0;entryDy=0;" parent="1" source="GbO0zibeAMqenVSyb-cL-3" target="GbO0zibeAMqenVSyb-cL-5" edge="1">
          <mxGeometry relative="1" as="geometry" />
        </mxCell>
        <mxCell id="GbO0zibeAMqenVSyb-cL-3" value="进入载体公众号/企业微信" style="rounded=0;whiteSpace=wrap;html=1;" parent="1" vertex="1">
          <mxGeometry x="720" y="480" width="120" height="60" as="geometry" />
        </mxCell>
        <mxCell id="GbO0zibeAMqenVSyb-cL-14" style="edgeStyle=orthogonalEdgeStyle;rounded=0;orthogonalLoop=1;jettySize=auto;html=1;entryX=0.5;entryY=0;entryDx=0;entryDy=0;" parent="1" source="GbO0zibeAMqenVSyb-cL-5" target="GbO0zibeAMqenVSyb-cL-6" edge="1">
          <mxGeometry relative="1" as="geometry" />
        </mxCell>
        <mxCell id="GbO0zibeAMqenVSyb-cL-5" value="回复关键词，返回&lt;br&gt;活动链接" style="rounded=0;whiteSpace=wrap;html=1;" parent="1" vertex="1">
          <mxGeometry x="925" y="480" width="120" height="60" as="geometry" />
        </mxCell>
        <mxCell id="GbO0zibeAMqenVSyb-cL-15" style="edgeStyle=orthogonalEdgeStyle;rounded=0;orthogonalLoop=1;jettySize=auto;html=1;entryX=1;entryY=0.5;entryDx=0;entryDy=0;" parent="1" source="GbO0zibeAMqenVSyb-cL-6" target="GbO0zibeAMqenVSyb-cL-7" edge="1">
          <mxGeometry relative="1" as="geometry" />
        </mxCell>
        <mxCell id="GbO0zibeAMqenVSyb-cL-16" style="edgeStyle=orthogonalEdgeStyle;rounded=0;orthogonalLoop=1;jettySize=auto;html=1;entryX=1;entryY=0.5;entryDx=0;entryDy=0;" parent="1" source="GbO0zibeAMqenVSyb-cL-6" target="GbO0zibeAMqenVSyb-cL-8" edge="1">
          <mxGeometry relative="1" as="geometry" />
        </mxCell>
        <mxCell id="GbO0zibeAMqenVSyb-cL-6" value="点击活动链接&lt;br&gt;领取红包" style="rounded=0;whiteSpace=wrap;html=1;" parent="1" vertex="1">
          <mxGeometry x="925" y="645" width="120" height="60" as="geometry" />
        </mxCell>
        <mxCell id="GbO0zibeAMqenVSyb-cL-22" style="edgeStyle=orthogonalEdgeStyle;rounded=0;orthogonalLoop=1;jettySize=auto;html=1;" parent="1" source="GbO0zibeAMqenVSyb-cL-7" target="GbO0zibeAMqenVSyb-cL-2" edge="1">
          <mxGeometry relative="1" as="geometry" />
        </mxCell>
        <mxCell id="GbO0zibeAMqenVSyb-cL-7" value="推广至其他客户" style="rounded=0;whiteSpace=wrap;html=1;" parent="1" vertex="1">
          <mxGeometry x="720" y="595" width="120" height="60" as="geometry" />
        </mxCell>
        <mxCell id="GbO0zibeAMqenVSyb-cL-23" style="edgeStyle=orthogonalEdgeStyle;rounded=0;orthogonalLoop=1;jettySize=auto;html=1;entryX=1;entryY=0.5;entryDx=0;entryDy=0;" parent="1" source="GbO0zibeAMqenVSyb-cL-8" target="GbO0zibeAMqenVSyb-cL-9" edge="1">
          <mxGeometry relative="1" as="geometry" />
        </mxCell>
        <mxCell id="GbO0zibeAMqenVSyb-cL-8" value="进一步完成操作&lt;br&gt;领取红包" style="rounded=0;whiteSpace=wrap;html=1;" parent="1" vertex="1">
          <mxGeometry x="720" y="735" width="120" height="60" as="geometry" />
        </mxCell>
        <mxCell id="GbO0zibeAMqenVSyb-cL-24" style="edgeStyle=orthogonalEdgeStyle;rounded=0;orthogonalLoop=1;jettySize=auto;html=1;entryX=1;entryY=0.5;entryDx=0;entryDy=0;" parent="1" source="GbO0zibeAMqenVSyb-cL-9" target="GbO0zibeAMqenVSyb-cL-10" edge="1">
          <mxGeometry relative="1" as="geometry" />
        </mxCell>
        <mxCell id="GbO0zibeAMqenVSyb-cL-9" value="自动分配客服二维码&lt;br&gt;填写信息" style="rounded=0;whiteSpace=wrap;html=1;" parent="1" vertex="1">
          <mxGeometry x="520" y="735" width="120" height="60" as="geometry" />
        </mxCell>
        <mxCell id="GbO0zibeAMqenVSyb-cL-10" value="添加后&lt;br&gt;客服介入完成引导&lt;br&gt;操作&lt;br&gt;领取相应权益" style="rounded=0;whiteSpace=wrap;html=1;" parent="1" vertex="1">
          <mxGeometry x="300" y="735" width="150" height="60" as="geometry" />
        </mxCell>
        <mxCell id="GbO0zibeAMqenVSyb-cL-30" style="edgeStyle=orthogonalEdgeStyle;rounded=0;orthogonalLoop=1;jettySize=auto;html=1;" parent="1" source="GbO0zibeAMqenVSyb-cL-25" target="GbO0zibeAMqenVSyb-cL-26" edge="1">
          <mxGeometry relative="1" as="geometry" />
        </mxCell>
        <mxCell id="GbO0zibeAMqenVSyb-cL-25" value="开始" style="rounded=1;whiteSpace=wrap;html=1;" parent="1" vertex="1">
          <mxGeometry x="390" y="930" width="120" height="60" as="geometry" />
        </mxCell>
        <mxCell id="GbO0zibeAMqenVSyb-cL-31" style="edgeStyle=orthogonalEdgeStyle;rounded=0;orthogonalLoop=1;jettySize=auto;html=1;" parent="1" source="GbO0zibeAMqenVSyb-cL-26" target="GbO0zibeAMqenVSyb-cL-27" edge="1">
          <mxGeometry relative="1" as="geometry" />
        </mxCell>
        <mxCell id="GbO0zibeAMqenVSyb-cL-26" value="客户添加企业微信" style="rounded=0;whiteSpace=wrap;html=1;" parent="1" vertex="1">
          <mxGeometry x="600" y="930" width="120" height="60" as="geometry" />
        </mxCell>
        <mxCell id="GbO0zibeAMqenVSyb-cL-32" style="edgeStyle=orthogonalEdgeStyle;rounded=0;orthogonalLoop=1;jettySize=auto;html=1;entryX=0.5;entryY=0;entryDx=0;entryDy=0;" parent="1" source="GbO0zibeAMqenVSyb-cL-27" target="GbO0zibeAMqenVSyb-cL-28" edge="1">
          <mxGeometry relative="1" as="geometry" />
        </mxCell>
        <mxCell id="GbO0zibeAMqenVSyb-cL-27" value="行内系统查看&lt;br&gt;客户分类" style="rounded=0;whiteSpace=wrap;html=1;" parent="1" vertex="1">
          <mxGeometry x="810" y="930" width="120" height="60" as="geometry" />
        </mxCell>
        <mxCell id="GbO0zibeAMqenVSyb-cL-33" style="edgeStyle=orthogonalEdgeStyle;rounded=0;orthogonalLoop=1;jettySize=auto;html=1;" parent="1" source="GbO0zibeAMqenVSyb-cL-28" target="GbO0zibeAMqenVSyb-cL-29" edge="1">
          <mxGeometry relative="1" as="geometry" />
        </mxCell>
        <mxCell id="GbO0zibeAMqenVSyb-cL-28" value="根据客户类型&lt;br&gt;引导操作" style="rounded=0;whiteSpace=wrap;html=1;" parent="1" vertex="1">
          <mxGeometry x="810" y="1050" width="120" height="60" as="geometry" />
        </mxCell>
        <mxCell id="GbO0zibeAMqenVSyb-cL-29" value="通过活动后台&lt;br&gt;发送相应权益" style="rounded=0;whiteSpace=wrap;html=1;" parent="1" vertex="1">
          <mxGeometry x="600" y="1050" width="120" height="60" as="geometry" />
        </mxCell>
        <mxCell id="cZswtAvTgp-vCxXKOOmt-10" value="客户经理操作流程" style="text;html=1;strokeColor=none;fillColor=none;align=center;verticalAlign=middle;whiteSpace=wrap;rounded=0;fontSize=16;fontColor=#FF6666;" vertex="1" parent="1">
          <mxGeometry x="250" y="940" width="100" height="50" as="geometry" />
        </mxCell>
        <mxCell id="cZswtAvTgp-vCxXKOOmt-11" value="长尾客户&lt;br&gt;活动流程" style="text;html=1;strokeColor=none;fillColor=none;align=center;verticalAlign=middle;whiteSpace=wrap;rounded=0;fontSize=16;fontColor=#FF6666;" vertex="1" parent="1">
          <mxGeometry x="170" y="485" width="100" height="50" as="geometry" />
        </mxCell>
        <mxCell id="cZswtAvTgp-vCxXKOOmt-15" style="edgeStyle=orthogonalEdgeStyle;rounded=0;orthogonalLoop=1;jettySize=auto;html=1;fontSize=16;fontColor=#FF6666;" edge="1" parent="1" source="cZswtAvTgp-vCxXKOOmt-12" target="cZswtAvTgp-vCxXKOOmt-13">
          <mxGeometry relative="1" as="geometry" />
        </mxCell>
        <mxCell id="cZswtAvTgp-vCxXKOOmt-12" value="宣传推广" style="rounded=1;whiteSpace=wrap;html=1;" vertex="1" parent="1">
          <mxGeometry x="450" y="100" width="120" height="60" as="geometry" />
        </mxCell>
        <mxCell id="cZswtAvTgp-vCxXKOOmt-16" style="edgeStyle=orthogonalEdgeStyle;rounded=0;orthogonalLoop=1;jettySize=auto;html=1;entryX=0;entryY=0.5;entryDx=0;entryDy=0;fontSize=16;fontColor=#FF6666;" edge="1" parent="1" source="cZswtAvTgp-vCxXKOOmt-13" target="cZswtAvTgp-vCxXKOOmt-14">
          <mxGeometry relative="1" as="geometry" />
        </mxCell>
        <mxCell id="cZswtAvTgp-vCxXKOOmt-13" value="触达裂变" style="rounded=1;whiteSpace=wrap;html=1;" vertex="1" parent="1">
          <mxGeometry x="660" y="100" width="120" height="60" as="geometry" />
        </mxCell>
        <mxCell id="cZswtAvTgp-vCxXKOOmt-14" value="达标领奖" style="rounded=1;whiteSpace=wrap;html=1;" vertex="1" parent="1">
          <mxGeometry x="870" y="100" width="120" height="60" as="geometry" />
        </mxCell>
        <mxCell id="cZswtAvTgp-vCxXKOOmt-17" value="活动三步走" style="text;html=1;strokeColor=none;fillColor=none;align=center;verticalAlign=middle;whiteSpace=wrap;rounded=0;fontSize=16;fontColor=#FF6666;" vertex="1" parent="1">
          <mxGeometry x="310" y="100" width="100" height="50" as="geometry" />
        </mxCell>
      </root>
    </mxGraphModel>
  </diagram>
</mxfile>
